<?xml version="1.0" encoding="UTF-8" standalone="no"?>
<svg
   xmlns:dc="http://purl.org/dc/elements/1.1/"
   xmlns:cc="http://creativecommons.org/ns#"
   xmlns:rdf="http://www.w3.org/1999/02/22-rdf-syntax-ns#"
   xmlns:svg="http://www.w3.org/2000/svg"
   xmlns="http://www.w3.org/2000/svg"
   xmlns:sodipodi="http://sodipodi.sourceforge.net/DTD/sodipodi-0.dtd"
   xmlns:inkscape="http://www.inkscape.org/namespaces/inkscape"
   width="210mm"
   height="297mm"
   viewBox="0 0 210 297"
   version="1.1"
   id="svg8"
   inkscape:version="1.0.2 (e86c8708, 2021-01-15)"
   sodipodi:docname="johann-logo.svg"
   inkscape:export-filename="/Users/flpachin/bitmap.png"
   inkscape:export-xdpi="299.96188"
   inkscape:export-ydpi="299.96188">
  <defs
     id="defs2">
    <rect
       x="20.706556"
       y="159.73629"
       width="169.03312"
       height="44.371192"
       id="rect87" />
    <rect
       x="20.706556"
       y="159.73629"
       width="169.03312"
       height="44.371192"
       id="rect231" />
    <rect
       x="20.706556"
       y="159.73629"
       width="169.03312"
       height="44.371192"
       id="rect191" />
  </defs>
  <sodipodi:namedview
     id="base"
     pagecolor="#ffffff"
     bordercolor="#666666"
     borderopacity="1.0"
     inkscape:pageopacity="0.0"
     inkscape:pageshadow="2"
     inkscape:zoom="0.62611007"
     inkscape:cx="485.04411"
     inkscape:cy="601.60767"
     inkscape:document-units="mm"
     inkscape:current-layer="layer1"
     inkscape:document-rotation="0"
     showgrid="false"
     inkscape:snap-nodes="false"
     inkscape:snap-others="false"
     inkscape:snap-global="false"
     inkscape:window-width="1920"
     inkscape:window-height="1106"
     inkscape:window-x="0"
     inkscape:window-y="25"
     inkscape:window-maximized="1" />
  <metadata
     id="metadata5">
    <rdf:RDF>
      <cc:Work
         rdf:about="">
        <dc:format>image/svg+xml</dc:format>
        <dc:type
           rdf:resource="http://purl.org/dc/dcmitype/StillImage" />
        <dc:title />
      </cc:Work>
    </rdf:RDF>
  </metadata>
  <g
     inkscape:label="Layer 1"
     inkscape:groupmode="layer"
     id="layer1">
    <path
       style="fill:#ffcc00;fill-opacity:1;stroke:#ffcc00;stroke-width:0.529167;stroke-miterlimit:4;stroke-dasharray:none;stroke-opacity:1"
       d="m 140.05554,125.57619 c -1.1605,-0.92398 -2.01946,-1.95131 -2.80089,-3.34981 -0.48262,-0.86367 -4.31622,-12.77137 -4.65638,-14.46317 -0.35169,-1.74937 -0.23448,-3.67382 0.33051,-5.42666 0.33365,-1.03514 1.26196,-2.657616 2.0094,-3.512096 0.71966,-0.8227 1.9875,-1.82857 2.95106,-2.34131 1.00923,-0.53704 11.57954,-3.99545 12.16637,-3.98059 1.21121,0.0306 2.90141,1.99156 2.71286,3.23842 -0.16725,1.1062 -0.43446,1.2517 -5.08859,2.77086 l -4.01692,1.31081 -0.3508,0.632726 0.47351,1.512 12.16606,-3.956876 c 8.54099,-2.77799 12.28627,-3.94601 12.56894,-3.92222 0.79168,0.0665 1.49322,0.58613 1.73438,1.28453 0.28839,0.83519 1.0105,3.01036 0.38103,3.55201 -0.21351,0.18374 -2.71979,1.05154 -8.14643,2.820696 l -7.83826,2.55467 -0.44579,0.22692 0.48842,1.54581 9.39914,-3.06711 c 6.39376,-2.08666 9.54076,-3.061996 9.8422,-3.050656 1.63841,0.0617 2.71074,2.580566 1.56659,3.807316 -0.2575,0.27609 -1.61011,0.74803 -9.82305,3.42726 l -9.79928,2.66721 0.48847,1.54601 0.48847,1.54597 7.7752,-2.53634 c 4.58047,-1.49315 7.95753,-2.53696 8.2189,-2.53808 0.65759,-0.002 1.37579,0.46416 1.63489,1.06292 0.28412,0.65649 0.31801,1.04147 0.13554,1.52989 -0.38509,1.02996 0.10237,0.82239 -8.60833,3.66543 l -7.97005,2.60192 0.48829,1.54539 0.48829,1.5454 6.01949,-1.967 c 4.01131,-1.31116 6.16721,-1.96182 6.46249,-1.95068 0.52328,0.0198 1.12008,0.30517 1.4345,0.68588 0.31731,0.38423 0.52888,1.29002 0.40214,1.7216 -0.16686,0.56816 -0.56939,1.1034 -1.00824,1.34115 -0.22148,0.11993 -5.67773,1.92794 -12.12494,4.01797 -10.04859,3.25742 -11.87687,3.81721 -12.8055,3.92052 -1.20327,0.13393 -2.37213,0.07 -3.54523,-0.19384 -1.01177,-0.22757 -2.98024,-1.17347 -3.79937,-1.82567 z"
       id="path1108"
       sodipodi:nodetypes="cscssscsccccccssccccccsccccccscccccccsscccscc" />
    <path
       style="fill:#999999;fill-opacity:1;stroke:none;stroke-width:0.604584;stroke-miterlimit:4;stroke-dasharray:none;stroke-opacity:1"
       d="m 85.415017,90.112854 v -5.89453 l 5.16843,2.51154 c 5.108846,2.48258 5.168434,2.52234 5.168434,3.44842 0,0.9247 -0.06526,0.9687 -5.017484,3.38299 -2.759614,1.34536 -5.085409,2.44612 -5.168433,2.44612 -0.08302,0 -0.150947,-2.65254 -0.150947,-5.89454 z"
       id="path1355" />
    <path
       style="fill:#999999;fill-opacity:1;stroke:none;stroke-width:0.660041;stroke-miterlimit:4;stroke-dasharray:none;stroke-opacity:1"
       d="m 98.148668,90.233134 v -2.75524 h 2.976112 2.97611 v 2.75524 2.75524 h -2.97611 -2.976112 z"
       id="path1357" />
    <path
       style="fill:#999999;fill-opacity:1;stroke:none;stroke-width:0.627148;stroke-miterlimit:4;stroke-dasharray:none;stroke-opacity:1"
       d="m 111.44082,93.715844 c -4.81966,-2.46354 -5.03149,-2.61011 -5.03149,-3.48114 0,-0.87235 0.20746,-1.01452 5.10325,-3.49718 2.80679,-1.42333 5.17234,-2.58787 5.25678,-2.58787 0.0844,0 0.15353,2.7383 0.15353,6.08511 0,3.34682 -0.10138,6.07788 -0.22529,6.06901 -0.12391,-0.009 -2.48946,-1.17343 -5.25678,-2.58793 z"
       id="path1359" />
    <path
       style="fill:#aa0000;fill-opacity:1;stroke:none;stroke-width:0.564096;stroke-miterlimit:4;stroke-dasharray:none;stroke-opacity:1"
       d="M 101.11586,110.60155 V 96.359514 h 0.56478 c 0.31063,0 1.13428,-0.28998 1.83034,-0.6444 l 2.22363,-2.01308 4.98715,2.4173 c 4.83679,2.34441 4.44522,3.59904 6.23946,2.89769 1.11163,-0.43453 2.21762,-1.66159 2.57121,-2.85267 0.38139,-1.28473 0.36211,-11.73956 -0.0237,-12.822762 -0.46648,-1.22549 -3.10332,-1.08043 -2.44918,-1.99512 0.2442,-0.3386 1.2568,-1.87862 1.27838,-1.9105 0.10883,-0.16077 26.43872,8.211612 27.1813,8.643112 0.96565,0.5611 3.03278,2.46643 2.85187,2.62864 -0.0639,0.0573 -2.09923,0.69215 -4.52296,1.41078 -5.38967,1.59803 -7.12736,2.39343 -9.12678,4.17761 -3.5423,3.16097 -5.13827,7.300866 -4.48311,11.628976 0.27399,1.80999 4.15874,13.47858 5.19585,15.60673 l 0.63926,1.31176 H 118.59458 101.1158 Z m 23.33721,6.71925 c 3.2323,-2.04776 0.0109,-6.4448 -1.02859,-10.23681 -0.96737,-0.41103 -0.74178,-1.01032 -6.67129,-1.01032 -5.9134,0 -5.43042,1.01057 -6.37656,1.41702 -3.61077,2.16676 -1.601,7.72441 0.51435,10.1498 6.78287,0.93389 8.27506,1.00259 13.56209,-0.31969 z"
       id="path1353"
       sodipodi:nodetypes="ccsscsssccsssssssccccccsccc" />
    <path
       style="fill:#aa0000;fill-opacity:1;stroke:none;stroke-width:0.57218;stroke-miterlimit:4;stroke-dasharray:none;stroke-opacity:1"
       d="m 56.295494,126.08194 c -1.299438,-0.48377 -2.116749,-1.31832 -2.606961,-2.66197 -0.348796,-0.95605 -0.390969,-2.99681 -0.326986,-15.82383 l 0.07346,-14.726226 0.719055,-1.60651 c 0.803219,-1.79452 1.858012,-3.07089 3.377395,-4.08685 0.560631,-0.37487 6.675102,-2.65099 13.587713,-5.058052 6.912612,-2.40705 12.58527,-4.37646 12.605913,-4.37646 0.02063,0 0.234605,0.31406 0.47548,0.69791 0.427794,0.68173 2.47329,2.90731 1.728637,3.72945 -1.323534,1.46126 -3.38974,-0.63902 -3.38974,6.894812 0,6.89458 0.01459,7.09575 0.576962,7.95853 0.927981,1.4237 1.818079,1.95882 3.458316,2.07908 1.425567,0.10458 0.668984,-1.17798 5.214967,-2.7326 l 5.105747,-1.74605 c 0.913476,0.38272 1.85698,1.28587 2.86281,1.32586 0.456378,0 0.474658,0.58782 0.474658,15.261736 v 15.26172 H 85.744796 71.256675 v -8.58858 -8.58859 l -0.749555,-0.78266 c -0.939506,-0.98098 -0.625622,-0.80033 -1.786633,-0.13675 l -0.719472,0.6459 -0.0742,8.72535 -0.07419,8.72533 -5.901519,-0.0118 c -3.27954,-0.007 -4.963212,-0.12102 -5.65562,-0.3788 z"
       id="path1351"
       sodipodi:nodetypes="ssscssssssssssccscccccsscccsss" />
    <path
       style="fill:#ffcc00;fill-opacity:1;stroke:#ffcc00;stroke-width:0.079375;stroke-miterlimit:4;stroke-dasharray:none;stroke-opacity:1"
       d="m 91.88411,83.852452 c -1.805808,-1.95628 -3.964204,-0.86735 -5.571786,-3.324 -2.157267,-3.408898 0.272314,-5.596864 -0.109376,-9.338199 l 4.886563,0.460539 c 5.65477,0.532937 6.129546,4.420285 10.084079,4.420285 3.92152,0 4.31533,-4.023447 10.10759,-4.22375 l 4.81969,-0.657074 1.02226,2.989804 c 0.7804,2.282394 -0.5417,3.170413 -2.29163,5.844605 -1.66018,2.53703 -1.94943,3.46946 -4.56354,4.739552 -2.79494,1.35793 -4.66312,0.94378 -6.04466,0.36202 -1.81048,-0.76236 -5.97636,-0.43566 -7.29352,0.31729 -2.751984,0.98352 -3.046555,0.57462 -5.04567,-1.591072 z"
       id="path1257"
       sodipodi:nodetypes="cccssscsssscc" />
    <path
       style="fill:#ffcc00;fill-opacity:1;stroke:#ffcc00;stroke-width:0.132292;stroke-miterlimit:4;stroke-dasharray:none;stroke-opacity:1"
       d="m 80.644171,64.042973 c -4.797092,-4.396168 -6.87664,-19.505355 -1.579594,-22.033933 2.095307,-2.868647 3.986085,-2.222463 3.986085,-5.305912 0,-3.833402 -0.02824,-6.901471 18.140258,-5.133274 l 15.81692,1.539335 1.44367,-0.61365 c 0.58301,-0.24782 -0.26671,3.107814 -0.26671,4.422126 0,2.803382 2.69331,1.546458 4.39206,4.291867 l 1.99067,2.618052 2.05911,6.373125 c 0.001,7.428571 -0.31283,10.734019 -3.06138,13.791073 -1.55522,1.729716 -10.35512,7.091804 -15.85254,9.866886 -1.91409,0.966227 -8.234448,1.172956 -11.012365,0.468384 C 92.183341,72.455437 84.281454,67.256864 80.644179,64.042973 Z"
       id="path1255"
       sodipodi:nodetypes="ccsscssscccsccc" />
    <g
       id="g1019"
       transform="matrix(0.08870251,0.04569552,-0.04569552,0.08870251,141.89544,77.274363)">
      <g
         id="g963">
        <path
           d="m 481.88476,192.09355 c -5.177,-5.177 -11.293,-9.069 -17.959,-11.538 13.349,-19.462 11.398,-46.338 -5.88,-63.617 -5.425,-5.425 -11.799,-9.336 -18.592,-11.742 4.674,-7.716004 7.175,-16.583004 7.175,-25.836004 0,-13.356 -5.201,-25.912 -14.646,-35.355 -9.443,-9.444 -21.999,-14.645 -35.355,-14.645 -9.253,0 -18.12,2.501 -25.836,7.175 -2.406,-6.792 -6.316,-13.167 -11.741,-18.592 -19.496,-19.4939997 -51.217,-19.4949997 -70.711,0 l -86.405,86.405004 c -2.481,-6.326004 -6.251,-12.135004 -11.2,-17.084004 -9.444,-9.444 -22,-14.645 -35.355,-14.645 -13.355,0 -25.912,5.201 -35.355,14.645 L 47.317761,159.97055 c -24.743,24.743 -38.3690002,57.64 -38.3690002,92.631 0,34.991 13.6260002,67.888 38.3690002,92.631 l 83.437999,83.438 c 24.742,24.743 57.639,38.37 92.63,38.37 34.991,0 67.889,-13.626 92.631,-38.37 l 165.867,-165.866 c 9.444,-9.444 14.646,-22 14.646,-35.356 10e-4,-13.355 -5.201,-25.911 -14.645,-35.355 z m -21.213,49.498 -165.867,165.866 c -19.076,19.077 -44.44,29.583 -71.418,29.583 -26.978,0 -52.341,-10.506 -71.417,-29.583 l -83.437999,-83.438 c -39.38,-39.38 -39.38,-103.456 0,-142.836 l 72.706999,-72.706 c 3.777,-3.777 8.799,-5.858 14.142,-5.858 5.343,0 10.364,2.081 14.142,5.858 3.777,3.777 5.858,8.799 5.858,14.142 0,5.343 -2.081,10.364 -5.858,14.142 0,0 -56.568,56.569 -56.568,56.569 l 21.213,21.213 175.385,-175.387004 c 7.798,-7.798 20.487,-7.798 28.285,0 7.798,7.798 7.798,20.486 0,28.285 l -111.748,111.747004 21.213,21.213 135.184,-135.183004 c 3.777,-3.777 8.8,-5.858 14.142,-5.858 5.343,0 10.365,2.081 14.143,5.858 3.777,3.777 5.858,8.8 5.858,14.142 0,5.342 -2.081,10.364 -5.858,14.142 l -23.426,23.426004 c -0.01,0.01 -111.758,111.758 -111.758,111.758 l 21.213,21.213 111.748,-111.748 c 7.798,-7.798 20.487,-7.798 28.285,0 7.798,7.798 7.798,20.487 0,28.285 l -25.65,25.65 c -0.008,0.008 -86.098,86.097 -86.098,86.097 l 21.213,21.213 86.094,-86.094 c 3.777,-3.775 8.798,-5.854 14.138,-5.854 5.343,0 10.365,2.081 14.143,5.858 3.777,3.777 5.858,8.8 5.858,14.142 -0.001,5.342 -2.083,10.365 -5.86,14.143 z"
           id="path961" />
      </g>
      <g
         id="g965" />
      <g
         id="g967" />
      <g
         id="g969" />
      <g
         id="g971" />
      <g
         id="g973" />
      <g
         id="g975" />
      <g
         id="g977" />
      <g
         id="g979" />
      <g
         id="g981" />
      <g
         id="g983" />
      <g
         id="g985" />
      <g
         id="g987" />
      <g
         id="g989" />
      <g
         id="g991" />
      <g
         id="g993" />
    </g>
    <g
       id="g1186"
       transform="matrix(0.26458333,0,0,0.26458333,39.900736,5.6920234)">
      <g
         id="g1124">
        <g
           id="g1122">
          <g
             id="g1120">
            <path
               d="m 183.5,167 c 4.142,0 7.5,-3.358 7.5,-7.5 v -8 c 0,-4.142 -3.358,-7.5 -7.5,-7.5 -4.142,0 -7.5,3.358 -7.5,7.5 v 8 c 0,4.142 3.358,7.5 7.5,7.5 z"
               id="path1110" />
            <path
               d="m 279.5,167 c 4.142,0 7.5,-3.358 7.5,-7.5 v -8 c 0,-4.142 -3.358,-7.5 -7.5,-7.5 -4.142,0 -7.5,3.358 -7.5,7.5 v 8 c 0,4.142 3.358,7.5 7.5,7.5 z"
               id="path1112" />
            <path
               d="m 203.414,215.902 c 6.942,4.511 17.179,7.098 28.086,7.098 10.907,0 21.145,-2.587 28.086,-7.098 3.473,-2.257 4.459,-6.902 2.203,-10.375 -2.257,-3.474 -6.902,-4.459 -10.375,-2.203 -4.505,2.928 -11.95,4.676 -19.914,4.676 -7.964,0 -15.408,-1.748 -19.914,-4.676 -3.474,-2.257 -8.118,-1.271 -10.375,2.203 -2.257,3.473 -1.271,8.118 2.203,10.375 z"
               id="path1114" />
            <path
               id="path1116"
               d="m 417.89844,56.654297 c -0.73583,-0.02521 -1.47742,0.0577 -2.20117,0.251953 -21.249,5.706 -48.18347,3.735078 -74.23047,1.830078 -38.604,-2.825 -78.52113,-5.744718 -104.57813,15.613281 -5.827,4.776 -9.84623,10.368813 -12.61523,15.757813 l -5.87891,0.978516 c -22.818,3.803999 -38.28933,25.462252 -34.48633,48.281252 l 8.83008,52.9707 c 0.752,4.514 3.52356,8.29409 7.60156,10.37109 0.589,0.3 1.19174,0.54577 1.80274,0.75977 v 35.4375 c 0,23.145 11.735,44.45714 30.625,55.61914 l 1.375,0.8125 v 27.40625 l -87.51953,29.17188 c -19.428,6.477 -32.48047,24.58645 -32.48047,45.06445 v 91.16992 c 0,17.369 14.131,31.5 31.5,31.5 h 307.35908 c -12.78643,-24.74201 -7.47737,-6.29595 -17.33156,-15 19.71846,-0.43819 -122.52752,0 -122.52752,0 v -105 h 0.5 c 4.64,0 8.79762,-2.05978 11.64062,-5.30078 l 29.44141,14.7207 c 2.206,1.103 4.57741,1.65039 6.94141,1.65039 2.822,0 5.63367,-0.78012 8.13867,-2.32812 4.603,-2.845 7.35156,-7.7755 7.35156,-13.1875 V 357.0957 c 0,-5.411 -2.74856,-10.3415 -7.35156,-13.1875 -0.396,-0.244 -0.80094,-0.46197 -1.21094,-0.66797 l 4.10937,-6.16406 87.21485,29.07227 c 13.293,4.432 18.48606,6.22848 18.48606,20.23948 h 15 c 0,-20.478 -9.31392,-27.99395 -28.74192,-34.46995 l -87.51953,-29.17383 v -27.4043 l 1.375,-0.8125 c 18.89,-11.162 30.625,-32.47414 30.625,-55.61914 v -36.90039 c 0.417,-0.206 0.82947,-0.42483 1.23047,-0.67383 4.238,-2.619 6.76953,-7.15567 6.76953,-12.13867 v -35.07422 c 21.202,-38.689 8.32481,-89.671465 7.75781,-91.855465 -0.503,-1.936 -1.75637,-3.591656 -3.48437,-4.597656 -1.08063,-0.629375 -2.29121,-0.971651 -3.51758,-1.013672 z M 299.89062,71.744141 c 12.78975,-0.07308 26.49118,0.92975 40.48243,1.953125 24.378,1.783 49.49665,3.621031 71.47265,-0.542969 2.59,14.729 6.3815,49.323613 -8.6875,75.224613 -0.666,1.144 -1.01562,2.44648 -1.01562,3.77148 v 35.86523 l -13.25,-6.625 c -2.313,-1.15599 -3.75,-3.4804 -3.75,-6.0664 v -8.88867 c 0,-12.012 -9.77221,-21.78516 -21.7832,-21.78516 h -115.4336 c -12.011,0 -21.7832,9.7722 -21.7832,21.7832 v 8.88868 c 0,2.586 -1.437,4.91236 -3.75,6.06835 l -15.02344,7.50977 -8.66602,-51.99609 c -2.32799,-13.972 6.5891,-27.26561 20.1211,-30.59961 -0.576,3.201 -0.66774,5.30217 -0.67774,5.57617 -0.142,3.952 2.81015,7.33547 6.74414,7.73047 3.933,0.394 7.5014,-2.33047 8.1504,-6.23047 l 1.28515,-7.72852 c 1.484,-5.661996 4.78631,-13.731168 12.07031,-19.701168 13.39125,-10.976875 32.1779,-14.085235 53.49414,-14.207031 z m -51.96484,87.906249 h 115.4336 c 3.73999,0 6.7832,3.0432 6.7832,6.7832 v 8.88868 c 0,8.304 4.61301,15.77037 12.04101,19.48437 l 11.95899,5.97852 v 38.12304 c 0,17.865 -8.91186,34.22908 -23.25586,42.70508 l -41.33008,24.42188 c -7.324,4.328 -15.59092,6.61523 -23.91992,6.61523 -8.317,0 -16.5842,-2.28823 -23.9082,-6.61523 l -41.33204,-24.42188 c -14.344,-8.476 -23.2539,-24.84008 -23.2539,-42.70508 v -38.12304 l 11.95703,-5.97852 c 7.428,-3.714 12.04297,-11.18037 12.04297,-19.48437 v -8.88868 c 0,-3.74 3.0432,-6.7832 6.7832,-6.7832 z m 1.2168,144.55273 24.95508,14.7461 c 9.633,5.693 20.53878,8.70117 31.55078,8.70117 11,0 21.90506,-3.00917 31.53906,-8.70117 l 24.95508,-14.7461 v 21.67579 L 348.5,346.34375 325.2832,357.95117 c -2.843,-3.241 -7.00062,-5.30078 -11.64062,-5.30078 h -16 c -4.638,0 -8.79567,2.05888 -11.63867,5.29688 l -23.22657,-11.61329 -13.63476,-20.45507 z m -10.5625,32.875 4.11328,6.16797 c -0.406,0.205 -0.80722,0.42207 -1.19922,0.66407 -4.603,2.845 -7.35156,7.77354 -7.35156,13.18554 v 38.11133 c 0,5.411 2.74856,10.33955 7.35156,13.18555 2.505,1.548 5.31667,2.33008 8.13867,2.33008 2.364,0 4.73641,-0.54739 6.94141,-1.65039 l 29.43164,-14.71485 c 2.843,3.238 6.99872,5.29492 11.63672,5.29492 h 0.5 v 105 h -105 v -56.5 c 0,-4.142 -3.358,-7.5 -7.5,-7.5 -4.142,0 -7.5,3.358 -7.5,7.5 v 56.49805 h -32.5 c -9.098,0 -16.5,-7.402 -16.5,-16.5 v -91.16992 c 0,-14.011 8.93065,-26.40103 22.22265,-30.83203 z m 11.0957,19.50782 c 0.0804,0.007 0.14345,0.039 0.18945,0.0625 l 32.27735,16.13672 v 6.73046 l -32.27735,16.13868 c -0.093,0.047 -0.24837,0.12451 -0.48437,-0.0215 -0.238,-0.148 -0.23828,-0.32178 -0.23828,-0.42578 V 357.0957 c 0,-0.104 -6.7e-4,-0.27878 0.23633,-0.42578 0.1185,-0.073 0.2165,-0.0911 0.29687,-0.084 z m 111.94727,0 c 0.0804,-0.007 0.17887,0.009 0.29687,0.082 0.237,0.147 0.23633,0.32078 0.23633,0.42578 v 38.11133 c 0,0.104 6.7e-4,0.27878 -0.23633,0.42578 -0.237,0.146 -0.39433,0.0685 -0.48633,0.0215 L 329.14258,379.5078 v -6.71484 l 32.29101,-16.14649 c 0.0465,-0.023 0.10908,-0.0533 0.18946,-0.0605 z m -63.98047,11.06445 h 16 c 0.276,0 0.5,0.225 0.5,0.5 v 16 c 0,0.275 -0.224,0.5 -0.5,0.5 h -16 c -0.276,0 -0.5,-0.225 -0.5,-0.5 v -15.49805 c 0.012,-0.183 0.0108,-0.36682 0.01,-0.54882 0.025,-0.253 0.23124,-0.45313 0.49024,-0.45313 z"
               transform="translate(-74.142094,-56.650753)"
               sodipodi:nodetypes="scccccccscsscccsssccccscsscsscccccccccssccscccsscccsccsssssscccccccccsssssccsccsccscssssccscccccsscccccccsscsccscccssscsssccscccccsscssssscccccssssssssccsccs" />
            <path
               d="m 311.5,376 h -40 c -8.547,0 -15.5,6.953 -15.5,15.5 v 24 c 0,8.547 6.953,15.5 15.5,15.5 h 40 c 8.547,0 15.5,-6.953 15.5,-15.5 v -24 c 0,-8.547 -6.953,-15.5 -15.5,-15.5 z m 0.5,39.5 c 0,0.275 -0.224,0.5 -0.5,0.5 h -40 c -0.276,0 -0.5,-0.225 -0.5,-0.5 v -24 c 0,-0.275 0.224,-0.5 0.5,-0.5 h 40 c 0.276,0 0.5,0.225 0.5,0.5 z"
               id="path1118" />
          </g>
        </g>
      </g>
      <g
         id="g1126" />
      <g
         id="g1128" />
      <g
         id="g1130" />
      <g
         id="g1132" />
      <g
         id="g1134" />
      <g
         id="g1136" />
      <g
         id="g1138" />
      <g
         id="g1140" />
      <g
         id="g1142" />
      <g
         id="g1144" />
      <g
         id="g1146" />
      <g
         id="g1148" />
      <g
         id="g1150" />
      <g
         id="g1152" />
      <g
         id="g1154" />
    </g>
    <path
       style="fill:#c87137;fill-opacity:1;stroke:#c87137;stroke-width:1.32292;stroke-miterlimit:4;stroke-dasharray:none;stroke-opacity:1"
       d="M 74.034969,32.82567 C 73.045925,26.775176 72.88963,25.0931 73.21062,23.953786 c 0.474605,-1.684547 1.941349,-3.514767 3.436274,-4.287824 1.047832,-0.541854 1.089051,-0.530217 1.089051,0.307491 0,1.387427 1.034561,2.550993 2.268159,2.550993 1.259364,0 2.26618,-1.168104 2.271853,-2.635792 0.006,-1.558454 1.660289,-4.647855 3.223871,-6.020699 0.801481,-0.703708 2.348873,-1.673793 3.438649,-2.155744 3.52043,-1.556902 6.289805,-1.8082826 15.826373,-1.436586 4.78203,0.186384 12.21172,0.339354 16.51042,0.339933 l 7.81582,0.0011 0.21725,1.086827 c 0.11948,0.597754 0.21724,3.079694 0.21724,5.515419 0,4.7542 -0.78008,8.815171 -2.24486,11.686389 -0.66446,1.302446 -0.77935,2.226432 -0.77935,6.26803 0,2.607214 -0.0935,4.740391 -0.20778,4.740391 -0.39418,0 -2.62913,-1.226756 -3.28896,-1.805294 -0.48194,-0.422561 -0.66171,-1.154282 -0.66214,-2.695107 -7.9e-4,-2.582362 -0.86515,-4.440648 -2.60699,-5.604272 l -1.28449,-0.858097 -17.23881,0.0013 c -16.534874,0.0013 -17.289127,0.03209 -18.47086,0.752597 -1.905788,1.161976 -2.734175,2.83319 -2.735823,5.519346 -0.0016,2.567932 -0.245417,2.92477 -2.916058,4.267343 -0.875355,0.440068 -1.646118,0.80011 -1.712806,0.80011 -0.06669,0 -0.670446,-3.359711 -1.341684,-7.466023 z"
       id="path1265" />
    <path
       style="fill:#999999;fill-opacity:1;stroke:none;stroke-width:0.35593;stroke-miterlimit:4;stroke-dasharray:none;stroke-opacity:1"
       d="m 111.543,112.46871 v -3.39704 h 5.49141 5.49142 v 3.39704 3.39703 h -5.49142 -5.49141 z"
       id="path1375" />
    <text
       xml:space="preserve"
       id="text85"
       style="font-style:normal;font-weight:normal;font-size:10.58329999999999949px;line-height:1.25;font-family:sans-serif;white-space:pre;shape-inside:url(#rect87);fill:#000000;fill-opacity:1;stroke:none;"
       transform="matrix(0.86684924,0,0,0.86684924,20.011316,-18.952166)"
       x="68.610451"
       y="0"><tspan
         x="105.22363"
         y="169.39179"><tspan
           style="font-style:normal;font-variant:normal;font-weight:bold;font-stretch:normal;font-size:10.5833px;font-family:'Red Hat Display';-inkscape-font-specification:'Red Hat Display, Bold';font-variant-ligatures:normal;font-variant-caps:normal;font-variant-numeric:normal;font-variant-east-asian:normal;text-align:center;text-anchor:middle">
</tspan></tspan><tspan
         x="36.587214"
         y="182.81001"><tspan
           style="font-style:normal;font-variant:normal;font-weight:bold;font-stretch:normal;font-size:10.5833px;font-family:'Red Hat Display';-inkscape-font-specification:'Red Hat Display, Bold';font-variant-ligatures:normal;font-variant-caps:normal;font-variant-numeric:normal;font-variant-east-asian:normal;text-align:center;text-anchor:middle">Network Device Monitoring</tspan></tspan></text>
    <text
       xml:space="preserve"
       id="text229"
       style="font-style:normal;font-weight:normal;font-size:10.58329999999999949px;line-height:1.25;font-family:sans-serif;white-space:pre;shape-inside:url(#rect231);fill:#000000;fill-opacity:1;stroke:none;"
       transform="matrix(0.86684924,0,0,0.86684924,113.40211,-78.955168)"
       x="68.610451"
       y="0"><tspan
         x="20.707031"
         y="174.88254"><tspan
           style="font-style:normal;font-variant:normal;font-weight:bold;font-stretch:normal;font-size:16.9333px;font-family:'Red Hat Display';-inkscape-font-specification:'Red Hat Display, Bold';font-variant-ligatures:normal;font-variant-caps:normal;font-variant-numeric:normal;font-variant-east-asian:normal">johann</tspan></tspan></text>
    <path
       style="fill:#ffcc00;fill-opacity:1;stroke:#ffcc00;stroke-width:0.529167;stroke-miterlimit:4;stroke-dasharray:none;stroke-opacity:1"
       d="m 142.59104,271.78983 c -1.1605,-0.92398 -2.01946,-1.95131 -2.80089,-3.34981 -0.48262,-0.86367 -4.31622,-12.77137 -4.65638,-14.46317 -0.35169,-1.74937 -0.23448,-3.67382 0.33051,-5.42666 0.33365,-1.03514 1.26196,-2.65762 2.0094,-3.5121 0.71966,-0.8227 1.9875,-1.82857 2.95106,-2.34131 1.00923,-0.53704 11.57954,-3.99545 12.16637,-3.98059 1.21121,0.0306 2.90141,1.99156 2.71286,3.23842 -0.16725,1.1062 -0.43446,1.2517 -5.08859,2.77086 l -4.01692,1.31081 -0.3508,0.63273 0.47351,1.512 12.16606,-3.95688 c 8.54099,-2.77799 12.28627,-3.94601 12.56894,-3.92222 0.79168,0.0665 1.49322,0.58613 1.73438,1.28453 0.28839,0.83519 1.0105,3.01036 0.38103,3.55201 -0.21351,0.18374 -2.71979,1.05154 -8.14643,2.8207 l -7.83826,2.55467 -0.44579,0.22692 0.48842,1.54581 9.39914,-3.06711 c 6.39376,-2.08666 9.54076,-3.062 9.8422,-3.05066 1.63841,0.0617 2.71074,2.58057 1.56659,3.80732 -0.2575,0.27609 -1.61011,0.74803 -9.82305,3.42726 l -9.79928,2.66721 0.48847,1.54601 0.48847,1.54597 7.7752,-2.53634 c 4.58047,-1.49315 7.95753,-2.53696 8.2189,-2.53808 0.65759,-0.002 1.37579,0.46416 1.63489,1.06292 0.28412,0.65649 0.31801,1.04147 0.13554,1.52989 -0.38509,1.02996 0.10237,0.82239 -8.60833,3.66543 l -7.97005,2.60192 0.48829,1.54539 0.48829,1.5454 6.01949,-1.967 c 4.01131,-1.31116 6.16721,-1.96182 6.46249,-1.95068 0.52328,0.0198 1.12008,0.30517 1.4345,0.68588 0.31731,0.38423 0.52888,1.29002 0.40214,1.7216 -0.16686,0.56816 -0.56939,1.1034 -1.00824,1.34115 -0.22148,0.11993 -5.67773,1.92794 -12.12494,4.01797 -10.04859,3.25742 -11.87687,3.81721 -12.8055,3.92052 -1.20327,0.13393 -2.37213,0.07 -3.54523,-0.19384 -1.01177,-0.22757 -2.98024,-1.17347 -3.79937,-1.82567 z"
       id="path83"
       sodipodi:nodetypes="cscssscsccccccssccccccsccccccscccccccsscccscc" />
    <path
       style="fill:#999999;fill-opacity:1;stroke:none;stroke-width:0.604584;stroke-miterlimit:4;stroke-dasharray:none;stroke-opacity:1"
       d="m 87.950514,236.32649 v -5.89453 l 5.16843,2.51154 c 5.108846,2.48258 5.168434,2.52234 5.168434,3.44842 0,0.9247 -0.06526,0.9687 -5.017484,3.38299 -2.759614,1.34536 -5.085409,2.44612 -5.168433,2.44612 -0.08302,0 -0.150947,-2.65254 -0.150947,-5.89454 z"
       id="path85" />
    <path
       style="fill:#999999;fill-opacity:1;stroke:none;stroke-width:0.660041;stroke-miterlimit:4;stroke-dasharray:none;stroke-opacity:1"
       d="m 100.68416,236.44677 v -2.75524 h 2.97612 2.97611 v 2.75524 2.75524 h -2.97611 -2.97612 z"
       id="path87" />
    <path
       style="fill:#999999;fill-opacity:1;stroke:none;stroke-width:0.627148;stroke-miterlimit:4;stroke-dasharray:none;stroke-opacity:1"
       d="m 113.97632,239.92948 c -4.81966,-2.46354 -5.03149,-2.61011 -5.03149,-3.48114 0,-0.87235 0.20746,-1.01452 5.10325,-3.49718 2.80679,-1.42333 5.17234,-2.58787 5.25678,-2.58787 0.0844,0 0.15353,2.7383 0.15353,6.08511 0,3.34682 -0.10138,6.07788 -0.22529,6.06901 -0.12391,-0.009 -2.48946,-1.17343 -5.25678,-2.58793 z"
       id="path89" />
    <path
       style="fill:#aa0000;fill-opacity:1;stroke:none;stroke-width:0.564096;stroke-miterlimit:4;stroke-dasharray:none;stroke-opacity:1"
       d="m 103.65136,256.81519 v -14.24204 h 0.56478 c 0.31063,0 1.13428,-0.28998 1.83034,-0.6444 l 2.22363,-2.01308 4.98715,2.4173 c 4.83679,2.34441 4.44522,3.59904 6.23946,2.89769 1.11163,-0.43453 2.21762,-1.66159 2.57121,-2.85267 0.38139,-1.28473 0.36211,-11.73956 -0.0237,-12.82276 -0.46648,-1.22549 -3.10332,-1.08043 -2.44918,-1.99512 0.2442,-0.3386 1.2568,-1.87862 1.27838,-1.9105 0.10883,-0.16077 26.43872,8.21161 27.1813,8.64311 0.96565,0.5611 3.03278,2.46643 2.85187,2.62864 -0.0639,0.0573 -2.09923,0.69215 -4.52296,1.41078 -5.38967,1.59803 -7.12736,2.39343 -9.12678,4.17761 -3.5423,3.16097 -5.13827,7.30087 -4.48311,11.62898 0.27399,1.80999 4.15874,13.47858 5.19585,15.60673 l 0.63926,1.31176 H 121.13008 103.6513 Z m 23.33721,6.71925 c 3.2323,-2.04776 0.0109,-6.4448 -1.02859,-10.23681 -0.96737,-0.41103 -0.74178,-1.01032 -6.67129,-1.01032 -5.9134,0 -5.43042,1.01057 -6.37656,1.41702 -3.61077,2.16676 -1.601,7.72441 0.51435,10.1498 6.78287,0.93389 8.27506,1.00259 13.56209,-0.31969 z"
       id="path91"
       sodipodi:nodetypes="ccsscsssccsssssssccccccsccc" />
    <path
       style="fill:#aa0000;fill-opacity:1;stroke:none;stroke-width:0.57218;stroke-miterlimit:4;stroke-dasharray:none;stroke-opacity:1"
       d="m 58.830991,272.29558 c -1.299438,-0.48377 -2.116749,-1.31832 -2.606961,-2.66197 -0.348796,-0.95605 -0.390969,-2.99681 -0.326986,-15.82383 l 0.07346,-14.72623 0.719055,-1.60651 c 0.803219,-1.79452 1.858012,-3.07089 3.377395,-4.08685 0.560631,-0.37487 6.675102,-2.65099 13.587713,-5.05805 6.912612,-2.40705 12.58527,-4.37646 12.605913,-4.37646 0.02063,0 0.234605,0.31406 0.47548,0.69791 0.427794,0.68173 2.47329,2.90731 1.728637,3.72945 -1.323534,1.46126 -3.38974,-0.63902 -3.38974,6.89481 0,6.89458 0.01459,7.09575 0.576962,7.95853 0.927981,1.4237 1.818079,1.95882 3.458316,2.07908 1.425567,0.10458 0.668984,-1.17798 5.214967,-2.7326 l 5.105747,-1.74605 c 0.913471,0.38272 1.856981,1.28587 2.862811,1.32586 0.45638,0 0.47466,0.58782 0.47466,15.26174 v 15.26172 H 88.280293 73.792172 v -8.58858 -8.58859 l -0.749555,-0.78266 c -0.939506,-0.98098 -0.625622,-0.80033 -1.786633,-0.13675 l -0.719472,0.6459 -0.0742,8.72535 -0.07419,8.72533 -5.901519,-0.0118 c -3.27954,-0.007 -4.963212,-0.12102 -5.65562,-0.3788 z"
       id="path93"
       sodipodi:nodetypes="ssscssssssssssccscccccsscccsss" />
    <path
       style="fill:#ffcc00;fill-opacity:1;stroke:#ffcc00;stroke-width:0.079375;stroke-miterlimit:4;stroke-dasharray:none;stroke-opacity:1"
       d="m 94.419607,230.06609 c -1.805808,-1.95628 -3.964204,-0.86735 -5.571786,-3.324 -2.157267,-3.4089 0.272314,-5.59686 -0.109376,-9.3382 l 4.886563,0.46054 c 5.65477,0.53294 6.129546,4.42029 10.084082,4.42029 3.92152,0 4.31533,-4.02345 10.10759,-4.22375 l 4.81969,-0.65708 1.02226,2.98981 c 0.7804,2.28239 -0.5417,3.17041 -2.29163,5.8446 -1.66018,2.53703 -1.94943,3.46946 -4.56354,4.73955 -2.79494,1.35793 -4.66312,0.94378 -6.04466,0.36202 -1.81048,-0.76236 -5.97637,-0.43566 -7.293523,0.31729 -2.751984,0.98352 -3.046555,0.57462 -5.04567,-1.59107 z"
       id="path95"
       sodipodi:nodetypes="cccssscsssscc" />
    <path
       style="fill:#ffcc00;fill-opacity:1;stroke:#ffcc00;stroke-width:0.132292;stroke-miterlimit:4;stroke-dasharray:none;stroke-opacity:1"
       d="m 83.179668,210.25661 c -4.797092,-4.39617 -6.87664,-19.50535 -1.579594,-22.03393 2.095307,-2.86865 3.986085,-2.22246 3.986085,-5.30591 0,-3.8334 -0.02824,-6.90147 18.140261,-5.13328 l 15.81692,1.53934 1.44367,-0.61365 c 0.58301,-0.24782 -0.26671,3.10781 -0.26671,4.42212 0,2.80339 2.69331,1.54646 4.39206,4.29187 l 1.99067,2.61805 2.05911,6.37313 c 0.001,7.42857 -0.31283,10.73402 -3.06138,13.79107 -1.55522,1.72972 -10.35512,7.09181 -15.85254,9.86689 -1.91409,0.96622 -8.23445,1.17295 -11.012368,0.46838 -4.517014,-1.87161 -12.418901,-7.07019 -16.056176,-10.28408 z"
       id="path97"
       sodipodi:nodetypes="ccsscssscccsccc" />
    <g
       id="g133"
       transform="matrix(0.08870251,0.04569552,-0.04569552,0.08870251,144.43094,223.488)">
      <g
         id="g101">
        <path
           d="m 481.88476,192.09355 c -5.177,-5.177 -11.293,-9.069 -17.959,-11.538 13.349,-19.462 11.398,-46.338 -5.88,-63.617 -5.425,-5.425 -11.799,-9.336 -18.592,-11.742 4.674,-7.716004 7.175,-16.583004 7.175,-25.836004 0,-13.356 -5.201,-25.912 -14.646,-35.355 -9.443,-9.444 -21.999,-14.645 -35.355,-14.645 -9.253,0 -18.12,2.501 -25.836,7.175 -2.406,-6.792 -6.316,-13.167 -11.741,-18.592 -19.496,-19.4939997 -51.217,-19.4949997 -70.711,0 l -86.405,86.405004 c -2.481,-6.326004 -6.251,-12.135004 -11.2,-17.084004 -9.444,-9.444 -22,-14.645 -35.355,-14.645 -13.355,0 -25.912,5.201 -35.355,14.645 L 47.317761,159.97055 c -24.743,24.743 -38.3690002,57.64 -38.3690002,92.631 0,34.991 13.6260002,67.888 38.3690002,92.631 l 83.437999,83.438 c 24.742,24.743 57.639,38.37 92.63,38.37 34.991,0 67.889,-13.626 92.631,-38.37 l 165.867,-165.866 c 9.444,-9.444 14.646,-22 14.646,-35.356 10e-4,-13.355 -5.201,-25.911 -14.645,-35.355 z m -21.213,49.498 -165.867,165.866 c -19.076,19.077 -44.44,29.583 -71.418,29.583 -26.978,0 -52.341,-10.506 -71.417,-29.583 l -83.437999,-83.438 c -39.38,-39.38 -39.38,-103.456 0,-142.836 l 72.706999,-72.706 c 3.777,-3.777 8.799,-5.858 14.142,-5.858 5.343,0 10.364,2.081 14.142,5.858 3.777,3.777 5.858,8.799 5.858,14.142 0,5.343 -2.081,10.364 -5.858,14.142 0,0 -56.568,56.569 -56.568,56.569 l 21.213,21.213 175.385,-175.387004 c 7.798,-7.798 20.487,-7.798 28.285,0 7.798,7.798 7.798,20.486 0,28.285 l -111.748,111.747004 21.213,21.213 135.184,-135.183004 c 3.777,-3.777 8.8,-5.858 14.142,-5.858 5.343,0 10.365,2.081 14.143,5.858 3.777,3.777 5.858,8.8 5.858,14.142 0,5.342 -2.081,10.364 -5.858,14.142 l -23.426,23.426004 c -0.01,0.01 -111.758,111.758 -111.758,111.758 l 21.213,21.213 111.748,-111.748 c 7.798,-7.798 20.487,-7.798 28.285,0 7.798,7.798 7.798,20.487 0,28.285 l -25.65,25.65 c -0.008,0.008 -86.098,86.097 -86.098,86.097 l 21.213,21.213 86.094,-86.094 c 3.777,-3.775 8.798,-5.854 14.138,-5.854 5.343,0 10.365,2.081 14.143,5.858 3.777,3.777 5.858,8.8 5.858,14.142 -0.001,5.342 -2.083,10.365 -5.86,14.143 z"
           id="path99" />
      </g>
      <g
         id="g103" />
      <g
         id="g105" />
      <g
         id="g107" />
      <g
         id="g109" />
      <g
         id="g111" />
      <g
         id="g113" />
      <g
         id="g115" />
      <g
         id="g117" />
      <g
         id="g119" />
      <g
         id="g121" />
      <g
         id="g123" />
      <g
         id="g125" />
      <g
         id="g127" />
      <g
         id="g129" />
      <g
         id="g131" />
    </g>
    <g
       id="g181"
       transform="matrix(0.26458333,0,0,0.26458333,42.436233,151.90566)">
      <g
         id="g149">
        <g
           id="g147">
          <g
             id="g145">
            <path
               d="m 183.5,167 c 4.142,0 7.5,-3.358 7.5,-7.5 v -8 c 0,-4.142 -3.358,-7.5 -7.5,-7.5 -4.142,0 -7.5,3.358 -7.5,7.5 v 8 c 0,4.142 3.358,7.5 7.5,7.5 z"
               id="path135" />
            <path
               d="m 279.5,167 c 4.142,0 7.5,-3.358 7.5,-7.5 v -8 c 0,-4.142 -3.358,-7.5 -7.5,-7.5 -4.142,0 -7.5,3.358 -7.5,7.5 v 8 c 0,4.142 3.358,7.5 7.5,7.5 z"
               id="path137" />
            <path
               d="m 203.414,215.902 c 6.942,4.511 17.179,7.098 28.086,7.098 10.907,0 21.145,-2.587 28.086,-7.098 3.473,-2.257 4.459,-6.902 2.203,-10.375 -2.257,-3.474 -6.902,-4.459 -10.375,-2.203 -4.505,2.928 -11.95,4.676 -19.914,4.676 -7.964,0 -15.408,-1.748 -19.914,-4.676 -3.474,-2.257 -8.118,-1.271 -10.375,2.203 -2.257,3.473 -1.271,8.118 2.203,10.375 z"
               id="path139" />
            <path
               id="path141"
               d="m 417.89844,56.654297 c -0.73583,-0.02521 -1.47742,0.0577 -2.20117,0.251953 -21.249,5.706 -48.18347,3.735078 -74.23047,1.830078 -38.604,-2.825 -78.52113,-5.744718 -104.57813,15.613281 -5.827,4.776 -9.84623,10.368813 -12.61523,15.757813 l -5.87891,0.978516 c -22.818,3.803999 -38.28933,25.462252 -34.48633,48.281252 l 8.83008,52.9707 c 0.752,4.514 3.52356,8.29409 7.60156,10.37109 0.589,0.3 1.19174,0.54577 1.80274,0.75977 v 35.4375 c 0,23.145 11.735,44.45714 30.625,55.61914 l 1.375,0.8125 v 27.40625 l -87.51953,29.17188 c -19.428,6.477 -32.48047,24.58645 -32.48047,45.06445 v 91.16992 c 0,17.369 14.131,31.5 31.5,31.5 h 307.35908 c -12.78643,-24.74201 -7.47737,-6.29595 -17.33156,-15 19.71846,-0.43819 -122.52752,0 -122.52752,0 v -105 h 0.5 c 4.64,0 8.79762,-2.05978 11.64062,-5.30078 l 29.44141,14.7207 c 2.206,1.103 4.57741,1.65039 6.94141,1.65039 2.822,0 5.63367,-0.78012 8.13867,-2.32812 4.603,-2.845 7.35156,-7.7755 7.35156,-13.1875 V 357.0957 c 0,-5.411 -2.74856,-10.3415 -7.35156,-13.1875 -0.396,-0.244 -0.80094,-0.46197 -1.21094,-0.66797 l 4.10937,-6.16406 87.21485,29.07227 c 13.293,4.432 18.48606,6.22848 18.48606,20.23948 h 15 c 0,-20.478 -9.31392,-27.99395 -28.74192,-34.46995 l -87.51953,-29.17383 v -27.4043 l 1.375,-0.8125 c 18.89,-11.162 30.625,-32.47414 30.625,-55.61914 v -36.90039 c 0.417,-0.206 0.82947,-0.42483 1.23047,-0.67383 4.238,-2.619 6.76953,-7.15567 6.76953,-12.13867 v -35.07422 c 21.202,-38.689 8.32481,-89.671465 7.75781,-91.855465 -0.503,-1.936 -1.75637,-3.591656 -3.48437,-4.597656 -1.08063,-0.629375 -2.29121,-0.971651 -3.51758,-1.013672 z M 299.89062,71.744141 c 12.78975,-0.07308 26.49118,0.92975 40.48243,1.953125 24.378,1.783 49.49665,3.621031 71.47265,-0.542969 2.59,14.729 6.3815,49.323613 -8.6875,75.224613 -0.666,1.144 -1.01562,2.44648 -1.01562,3.77148 v 35.86523 l -13.25,-6.625 c -2.313,-1.15599 -3.75,-3.4804 -3.75,-6.0664 v -8.88867 c 0,-12.012 -9.77221,-21.78516 -21.7832,-21.78516 h -115.4336 c -12.011,0 -21.7832,9.7722 -21.7832,21.7832 v 8.88868 c 0,2.586 -1.437,4.91236 -3.75,6.06835 l -15.02344,7.50977 -8.66602,-51.99609 c -2.32799,-13.972 6.5891,-27.26561 20.1211,-30.59961 -0.576,3.201 -0.66774,5.30217 -0.67774,5.57617 -0.142,3.952 2.81015,7.33547 6.74414,7.73047 3.933,0.394 7.5014,-2.33047 8.1504,-6.23047 l 1.28515,-7.72852 c 1.484,-5.661996 4.78631,-13.731168 12.07031,-19.701168 13.39125,-10.976875 32.1779,-14.085235 53.49414,-14.207031 z m -51.96484,87.906249 h 115.4336 c 3.73999,0 6.7832,3.0432 6.7832,6.7832 v 8.88868 c 0,8.304 4.61301,15.77037 12.04101,19.48437 l 11.95899,5.97852 v 38.12304 c 0,17.865 -8.91186,34.22908 -23.25586,42.70508 l -41.33008,24.42188 c -7.324,4.328 -15.59092,6.61523 -23.91992,6.61523 -8.317,0 -16.5842,-2.28823 -23.9082,-6.61523 l -41.33204,-24.42188 c -14.344,-8.476 -23.2539,-24.84008 -23.2539,-42.70508 v -38.12304 l 11.95703,-5.97852 c 7.428,-3.714 12.04297,-11.18037 12.04297,-19.48437 v -8.88868 c 0,-3.74 3.0432,-6.7832 6.7832,-6.7832 z m 1.2168,144.55273 24.95508,14.7461 c 9.633,5.693 20.53878,8.70117 31.55078,8.70117 11,0 21.90506,-3.00917 31.53906,-8.70117 l 24.95508,-14.7461 v 21.67579 L 348.5,346.34375 325.2832,357.95117 c -2.843,-3.241 -7.00062,-5.30078 -11.64062,-5.30078 h -16 c -4.638,0 -8.79567,2.05888 -11.63867,5.29688 l -23.22657,-11.61329 -13.63476,-20.45507 z m -10.5625,32.875 4.11328,6.16797 c -0.406,0.205 -0.80722,0.42207 -1.19922,0.66407 -4.603,2.845 -7.35156,7.77354 -7.35156,13.18554 v 38.11133 c 0,5.411 2.74856,10.33955 7.35156,13.18555 2.505,1.548 5.31667,2.33008 8.13867,2.33008 2.364,0 4.73641,-0.54739 6.94141,-1.65039 l 29.43164,-14.71485 c 2.843,3.238 6.99872,5.29492 11.63672,5.29492 h 0.5 v 105 h -105 v -56.5 c 0,-4.142 -3.358,-7.5 -7.5,-7.5 -4.142,0 -7.5,3.358 -7.5,7.5 v 56.49805 h -32.5 c -9.098,0 -16.5,-7.402 -16.5,-16.5 v -91.16992 c 0,-14.011 8.93065,-26.40103 22.22265,-30.83203 z m 11.0957,19.50782 c 0.0804,0.007 0.14345,0.039 0.18945,0.0625 l 32.27735,16.13672 v 6.73046 l -32.27735,16.13868 c -0.093,0.047 -0.24837,0.12451 -0.48437,-0.0215 -0.238,-0.148 -0.23828,-0.32178 -0.23828,-0.42578 V 357.0957 c 0,-0.104 -6.7e-4,-0.27878 0.23633,-0.42578 0.1185,-0.073 0.2165,-0.0911 0.29687,-0.084 z m 111.94727,0 c 0.0804,-0.007 0.17887,0.009 0.29687,0.082 0.237,0.147 0.23633,0.32078 0.23633,0.42578 v 38.11133 c 0,0.104 6.7e-4,0.27878 -0.23633,0.42578 -0.237,0.146 -0.39433,0.0685 -0.48633,0.0215 L 329.14258,379.5078 v -6.71484 l 32.29101,-16.14649 c 0.0465,-0.023 0.10908,-0.0533 0.18946,-0.0605 z m -63.98047,11.06445 h 16 c 0.276,0 0.5,0.225 0.5,0.5 v 16 c 0,0.275 -0.224,0.5 -0.5,0.5 h -16 c -0.276,0 -0.5,-0.225 -0.5,-0.5 v -15.49805 c 0.012,-0.183 0.0108,-0.36682 0.01,-0.54882 0.025,-0.253 0.23124,-0.45313 0.49024,-0.45313 z"
               transform="translate(-74.142094,-56.650753)"
               sodipodi:nodetypes="scccccccscsscccsssccccscsscsscccccccccssccscccsscccsccsssssscccccccccsssssccsccsccscssssccscccccsscccccccsscsccscccssscsssccscccccsscssssscccccssssssssccsccs" />
            <path
               d="m 311.5,376 h -40 c -8.547,0 -15.5,6.953 -15.5,15.5 v 24 c 0,8.547 6.953,15.5 15.5,15.5 h 40 c 8.547,0 15.5,-6.953 15.5,-15.5 v -24 c 0,-8.547 -6.953,-15.5 -15.5,-15.5 z m 0.5,39.5 c 0,0.275 -0.224,0.5 -0.5,0.5 h -40 c -0.276,0 -0.5,-0.225 -0.5,-0.5 v -24 c 0,-0.275 0.224,-0.5 0.5,-0.5 h 40 c 0.276,0 0.5,0.225 0.5,0.5 z"
               id="path143" />
          </g>
        </g>
      </g>
      <g
         id="g151" />
      <g
         id="g153" />
      <g
         id="g155" />
      <g
         id="g157" />
      <g
         id="g159" />
      <g
         id="g161" />
      <g
         id="g163" />
      <g
         id="g165" />
      <g
         id="g167" />
      <g
         id="g169" />
      <g
         id="g171" />
      <g
         id="g173" />
      <g
         id="g175" />
      <g
         id="g177" />
      <g
         id="g179" />
    </g>
    <path
       style="fill:#c87137;fill-opacity:1;stroke:#c87137;stroke-width:1.32292;stroke-miterlimit:4;stroke-dasharray:none;stroke-opacity:1"
       d="m 76.570466,179.03931 c -0.989044,-6.05049 -1.145339,-7.73257 -0.824349,-8.87188 0.474605,-1.68455 1.941349,-3.51477 3.436274,-4.28783 1.047832,-0.54185 1.089051,-0.53022 1.089051,0.30749 0,1.38743 1.034561,2.551 2.268159,2.551 1.259364,0 2.26618,-1.16811 2.271853,-2.6358 0.006,-1.55845 1.660289,-4.64785 3.223871,-6.0207 0.801481,-0.7037 2.348873,-1.67379 3.438649,-2.15574 3.52043,-1.5569 6.289805,-1.80828 15.826376,-1.43659 4.78203,0.18639 12.21172,0.33936 16.51042,0.33994 l 7.81582,0.001 0.21725,1.08682 c 0.11948,0.59776 0.21724,3.0797 0.21724,5.51542 0,4.7542 -0.78008,8.81517 -2.24486,11.68639 -0.66446,1.30245 -0.77935,2.22643 -0.77935,6.26803 0,2.60722 -0.0935,4.74039 -0.20778,4.74039 -0.39418,0 -2.62913,-1.22675 -3.28896,-1.80529 -0.48194,-0.42256 -0.66171,-1.15428 -0.66214,-2.69511 -7.9e-4,-2.58236 -0.86515,-4.44065 -2.60699,-5.60427 l -1.28449,-0.8581 -17.23881,0.001 c -16.534877,0.001 -17.28913,0.0321 -18.470863,0.7526 -1.905788,1.16198 -2.734175,2.83319 -2.735823,5.51935 -0.0016,2.56793 -0.245417,2.92477 -2.916058,4.26734 -0.875355,0.44007 -1.646118,0.80011 -1.712806,0.80011 -0.06669,0 -0.670446,-3.35971 -1.341684,-7.46602 z"
       id="path183" />
    <path
       style="fill:#999999;fill-opacity:1;stroke:none;stroke-width:0.35593;stroke-miterlimit:4;stroke-dasharray:none;stroke-opacity:1"
       d="m 114.0785,258.68235 v -3.39704 h 5.49141 5.49142 v 3.39704 3.39703 h -5.49142 -5.49141 z"
       id="path185" />
    <text
       xml:space="preserve"
       id="text189"
       style="font-style:normal;font-weight:normal;font-size:10.58329999999999949px;line-height:1.25;font-family:sans-serif;white-space:pre;shape-inside:url(#rect191);fill:#000000;fill-opacity:1;stroke:none;"
       transform="matrix(0.86684924,0,0,0.86684924,66.918011,136.98463)"
       x="68.610451"
       y="0"><tspan
         x="20.707031"
         y="174.88254"><tspan
           style="font-style:normal;font-variant:normal;font-weight:bold;font-stretch:normal;font-size:16.9333px;font-family:'Red Hat Display';-inkscape-font-specification:'Red Hat Display, Bold';font-variant-ligatures:normal;font-variant-caps:normal;font-variant-numeric:normal;font-variant-east-asian:normal">johann</tspan></tspan></text>
  </g>
</svg>
